PathFileType	4	(X/Y/Z)	Kaydara	
DataRate	CameraRate	NumFrames	NumMarkers	Units	OrigDataRate	OrigDataStartFrame	OrigNumFrames	
30.00	30.00	11	28	mm	30.00	1	126	
Frame#	Time	reference			Hips			Spine			Spine1			Neck			Head			Head_End			LeftShoulder			LeftArm			LeftForeArm			LeftHand			LeftHand_End			RightShoulder			RightArm			RightForeArm			RightHand			RightHand_End			LeftUpLeg			LeftLeg			LeftFoot			LeftFoot_End			RightUpLeg			RightLeg			RightFoot			RightFoot_End			Tail			Tail1			Tail1_End			
		X1	Y1	Z1	X2	Y2	Z2	X3	Y3	Z3	X4	Y4	Z4	X5	Y5	Z5	X6	Y6	Z6	X7	Y7	Z7	X8	Y8	Z8	X9	Y9	Z9	X10	Y10	Z10	X11	Y11	Z11	X12	Y12	Z12	X13	Y13	Z13	X14	Y14	Z14	X15	Y15	Z15	X16	Y16	Z16	X17	Y17	Z17	X18	Y18	Z18	X19	Y19	Z19	X20	Y20	Z20	X21	Y21	Z21	X22	Y22	Z22	X23	Y23	Z23	X24	Y24	Z24	X25	Y25	Z25	X26	Y26	Z26	X27	Y27	Z27	X28	Y28	Z28	

1	0.000	0.00000	0.00000	0.00000	249.21917	254.85321	472.53029	249.21922	254.85315	472.53030	243.07947	65.04220	466.69041	176.53502	-148.17992	438.95717	122.75773	-276.45191	423.00901	81.73384	-428.82554	359.76886	224.54852	-131.52317	408.03354	248.43091	-190.69169	359.77685	260.41027	-124.99966	223.23006	210.08194	-236.32801	93.78109	202.04212	-281.09382	37.96551	142.42049	-106.60654	413.52523	87.74686	-119.71363	356.59218	96.24244	-4.40035	257.92762	141.30832	-25.24359	86.99310	158.88434	-52.70358	22.79787	299.73681	309.09736	393.43140	321.61523	211.10016	268.86076	277.28570	297.94089	117.55445	262.36248	274.31420	13.23246	204.88049	321.08079	399.05186	201.30587	252.51990	254.52988	227.53601	391.30175	142.94334	236.84042	420.68266	39.43396	257.38705	322.76325	465.58973	270.00098	382.87730	362.50156	281.04687	437.34144	256.14535 
2	0.033	0.00000	0.00000	0.00000	249.67360	252.03585	472.24136	249.67365	252.03579	472.24138	242.50356	62.24072	467.10124	176.78475	-151.09424	438.28808	124.54825	-279.89764	421.52267	86.23866	-432.87514	358.03835	224.62456	-134.04313	407.31025	248.70105	-192.88375	358.75005	260.73312	-126.05020	222.76299	212.34304	-232.37740	88.46145	203.63466	-277.45102	32.99499	142.40875	-109.51483	413.22068	87.97155	-122.27870	355.98390	96.01825	-6.09056	258.31308	141.21658	-25.97878	87.29976	158.74249	-52.71022	22.78412	299.94726	306.08469	392.85386	321.43368	208.41531	267.95794	277.32470	297.15835	117.69453	262.47575	274.29860	13.19122	205.15844	318.36177	398.95860	200.73956	249.18246	254.75501	227.20735	388.98102	144.50167	236.46731	419.25113	41.24484	258.01346	319.91699	465.22311	270.33746	380.28522	362.24846	280.88145	434.98097	255.96019 
3	0.067	0.00000	0.00000	0.00000	250.13895	249.00755	471.96430	250.13900	249.00749	471.96432	242.49179	59.20846	467.73953	177.37176	-154.12725	437.60279	126.74573	-283.48349	420.16681	90.60982	-437.12250	357.00631	225.09249	-136.71575	406.64176	249.41869	-195.12252	357.68387	263.11298	-126.83177	222.58090	213.43832	-229.24213	85.72869	203.21099	-275.82916	31.79313	142.81400	-112.48408	412.89371	88.19333	-125.07744	355.79412	95.79882	-8.30453	258.78759	141.11988	-26.70668	87.64044	158.65068	-52.78316	22.85862	300.22544	302.98003	392.40672	321.17616	205.78287	267.05225	277.38342	296.31507	117.76683	262.23555	274.39523	13.10517	205.46723	315.35027	398.79210	200.49153	245.37940	254.98911	226.98989	386.40926	146.32266	236.24963	417.58785	43.33649	258.52277	316.87817	464.89680	270.72997	377.49847	362.05642	280.86050	432.50210	255.88688 
4	0.100	0.00000	0.00000	0.00000	250.54476	245.94059	471.68560	250.54481	245.94053	471.68562	242.49034	56.13841	468.47958	178.18640	-157.23017	436.85962	129.07294	-287.09053	418.85408	94.77593	-441.28295	356.01768	225.78157	-139.39303	405.94764	250.34789	-197.29146	356.50820	265.68302	-127.86858	222.16062	214.08278	-227.91671	84.27746	202.69076	-275.32495	31.29940	143.41622	-115.54490	412.52232	88.52626	-128.13124	355.67998	95.65484	-10.78296	259.33380	140.94068	-27.44265	87.99895	158.56181	-52.80671	22.95930	300.50211	299.81978	391.98371	320.87371	202.94441	266.28517	277.50911	295.34862	118.02529	262.16519	274.46715	13.18003	205.75881	312.22156	398.52726	200.19210	241.37354	255.17613	226.84375	383.62645	148.15381	236.10072	415.65619	45.42891	258.93371	313.80184	464.53476	271.11045	374.56287	361.77384	280.89096	429.83249	255.70967 
5	0.133	0.00000	0.00000	0.00000	250.78701	242.85856	471.36734	250.78706	242.85850	471.36736	242.20558	53.06529	469.15513	179.05087	-160.42301	436.06139	131.31052	-290.72562	417.56453	98.65386	-445.28413	354.75363	226.50853	-142.09715	405.22396	251.30389	-199.48115	355.30145	267.44972	-129.24192	221.47419	214.88559	-228.24841	83.20379	203.25217	-275.52141	30.15736	144.01987	-118.75650	412.06842	89.02771	-131.50596	355.36138	95.29082	-13.42693	259.85149	140.56397	-28.18511	88.33904	158.37783	-52.73332	23.03937	300.68116	296.61104	391.54041	320.45573	199.88124	265.63459	277.66079	294.27993	118.46971	262.37817	274.45794	13.41005	205.93874	308.99995	398.12091	199.37917	237.12713	255.32297	226.60050	380.46408	149.90240	236.02252	413.20704	47.41765	259.15405	310.70935	464.09260	271.35396	371.47137	361.33502	280.85254	426.92656	255.34211 
6	0.167	0.00000	0.00000	0.00000	250.75924	239.60846	470.94936	250.75929	239.60840	470.94938	241.75742	49.82633	469.63412	179.84244	-163.82719	435.28772	133.45629	-294.56203	416.39930	102.26955	-449.37929	353.47870	227.21152	-145.05497	404.58286	252.30023	-202.00536	354.31160	268.89005	-130.58558	221.16519	215.66876	-228.67829	82.49547	203.67813	-276.01205	29.58294	144.58702	-122.22542	411.51213	89.68237	-135.34917	354.80569	94.26416	-16.45900	260.21099	139.94927	-28.99260	88.63080	158.05658	-52.68382	23.09572	300.67111	293.32859	391.11173	319.82837	196.84723	264.92017	277.70134	293.21591	118.84344	262.46284	274.44431	13.58464	205.89044	305.51967	397.50828	197.71220	232.23693	255.51273	225.96004	376.62867	151.81573	235.94284	409.72400	49.49739	258.98886	307.46449	463.56758	271.31019	368.14733	360.77770	280.63849	423.75267	254.84835 
7	0.200	0.00000	0.00000	0.00000	250.44682	236.22299	470.31769	250.44687	236.22293	470.31770	241.18916	46.44891	469.97879	180.72055	-167.47269	434.73589	135.68590	-298.62076	415.44579	106.28316	-453.78690	352.52561	228.02674	-148.28380	404.19207	253.43447	-204.96865	353.78111	270.45289	-131.79947	221.64248	216.34104	-228.37933	82.25734	204.49742	-275.50919	29.13013	145.24343	-126.01267	411.04261	90.23783	-139.60435	354.54461	93.47860	-20.06366	260.71742	139.39915	-29.94682	89.02697	157.76131	-52.68748	23.22660	300.41068	290.07794	390.60350	319.54543	194.02308	264.08358	277.75178	292.15526	119.08914	262.54713	274.35938	13.65610	205.54893	301.82487	396.61787	195.74697	226.39826	255.85308	224.89698	372.48883	154.81941	234.93919	403.89901	51.97703	258.38143	304.10797	462.87925	270.87814	364.64938	360.02717	280.15707	420.25924	254.09586 
8	0.233	0.00000	0.00000	0.00000	250.16048	232.75049	469.76349	250.16054	232.75044	469.76351	240.60116	42.99145	470.14342	181.53289	-171.23022	434.35261	137.96637	-302.80325	414.59046	109.90297	-458.16435	351.53989	228.78082	-151.68728	403.94340	254.36183	-208.25887	353.49286	272.38622	-133.53321	222.36250	216.97342	-228.19558	82.17536	204.68220	-275.04347	28.90063	145.84717	-129.94378	410.66950	90.76952	-143.90530	354.33211	93.08659	-23.68938	261.34401	139.11230	-31.14287	89.55907	157.63030	-52.78565	23.43291	300.12108	286.74793	390.14371	319.31291	191.16912	263.27240	277.87883	291.08303	119.39590	262.74250	274.35454	13.77843	205.16399	297.91755	395.73876	193.80831	219.48180	256.74646	224.52977	367.57443	159.15167	234.87381	396.76429	55.68693	257.70452	300.66775	462.21421	270.29911	361.00761	359.25568	279.61257	416.48766	253.25935 
9	0.267	0.00000	0.00000	0.00000	249.78001	229.29022	469.30202	249.78006	229.29016	469.30204	240.04955	39.54028	469.84995	182.21251	-174.99323	433.91644	140.19051	-306.98070	413.58167	113.11245	-462.61372	350.77129	229.42106	-155.19421	403.61188	255.22948	-211.75247	353.26232	273.63958	-135.57654	223.02303	217.48047	-228.43349	81.92832	204.51942	-274.95321	28.52492	146.35717	-133.89748	410.15794	91.31297	-148.13412	353.85672	92.97907	-27.06537	261.96762	138.92000	-32.42022	90.08179	157.51448	-52.94648	23.62192	299.66812	283.36672	389.69045	319.14464	188.41635	262.39136	277.98941	290.13916	119.70731	262.89984	274.37884	13.93435	204.62501	293.95876	394.93741	191.97374	212.05074	258.07617	223.88391	361.76332	163.37736	234.70707	387.80642	59.12471	256.92514	297.23103	461.57857	269.72267	357.22259	358.44169	279.21074	412.37789	252.29147 
10	0.300	0.00000	0.00000	0.00000	249.24538	225.80584	468.87493	249.24543	225.80578	468.87495	239.42915	36.05960	469.04016	182.65551	-178.80264	433.37592	142.19343	-311.18794	412.47145	115.92062	-467.15847	350.15826	229.85023	-158.84799	403.15202	256.00769	-215.45496	353.03787	274.06088	-137.79475	223.62788	217.71911	-229.03034	81.55167	204.39959	-275.13592	27.87801	146.67446	-137.91565	409.44792	91.77739	-152.37576	353.06005	92.92630	-30.26621	262.55060	138.70465	-33.66511	90.57160	157.42605	-53.25187	23.86431	299.00378	279.93717	389.21946	319.05369	185.71246	261.47100	277.98189	289.24628	120.07130	262.94426	274.36029	14.16437	203.88450	289.96228	394.19273	190.27859	204.18980	259.81290	222.79219	355.48967	167.88252	234.44356	378.01204	62.90163	255.99371	293.76462	460.95521	269.15202	353.27525	357.58537	278.98995	407.92158	251.20402 
11	0.333	0.00000	0.00000	0.00000	248.62309	222.12616	468.40233	248.62314	222.12610	468.40235	238.57918	32.39229	467.95840	182.79287	-182.82370	432.87371	143.87379	-315.61069	411.59075	118.36675	-471.73390	349.34177	229.98963	-162.77764	402.71355	256.50156	-219.46530	352.87765	274.40964	-140.21444	224.41530	217.65004	-229.59171	81.32781	204.58810	-275.14806	27.12448	146.71084	-142.16799	408.70491	92.02903	-156.83728	352.16213	92.69112	-33.63859	263.13591	138.48238	-34.85611	91.13108	157.52787	-53.78856	24.32669	298.20311	276.40600	388.73669	319.02521	182.83163	260.63422	277.82841	288.16575	120.60720	262.95863	274.28360	14.54035	203.00232	285.76683	393.43766	188.68696	195.54504	262.07907	221.89747	348.26690	172.78698	234.72605	366.97808	67.19665	254.90884	290.11074	460.32488	268.46520	349.13487	356.72778	278.80258	403.17076	250.08230 
